<svg width="103" height="118" viewBox="0 0 103 118" fill="none" xmlns="http://www.w3.org/2000/svg">
<path d="M73.5714 103.25V112.469C73.5714 115.524 71.101 118 68.0536 118H5.51786C2.47039 118 0 115.524 0 112.469V27.6562C0 24.6014 2.47039 22.125 5.51786 22.125H22.0714V90.3438C22.0714 97.4604 27.847 103.25 34.9464 103.25H73.5714ZM73.5714 23.9688V0H34.9464C31.899 0 29.4286 2.47639 29.4286 5.53125V90.3438C29.4286 93.3986 31.899 95.875 34.9464 95.875H97.4821C100.53 95.875 103 93.3986 103 90.3438V29.5H79.0893C76.0545 29.5 73.5714 27.0109 73.5714 23.9688ZM101.384 16.8175L86.2232 1.61996C85.1884 0.582723 83.785 7.66991e-06 82.3216 0L80.9286 0V22.125H103V20.7286C103 19.2617 102.419 17.8548 101.384 16.8175V16.8175Z" fill="#151515"/>
</svg>
